{
	"asset":{
		"generator":"Khronos glTF Blender I/O v4.2.83",
		"version":"2.0"
	},
	"scene":0,
	"scenes":[
		{
			"name":"Scene",
			"nodes":[
				0,
				1,
				2,
				3,
				4,
				5,
				6,
				7,
				8,
				9,
				10
			]
		}
	],
	"nodes":[
		{
			"mesh":0,
			"name":"Couch - Back cushions",
			"rotation":[
				0,
				0.7071067094802856,
				0,
				0.7071068286895752
			],
			"translation":[
				0,
				0.3254725933074951,
				0
			]
		},
		{
			"mesh":1,
			"name":"Couch - Armrests",
			"rotation":[
				0,
				0.7071067094802856,
				0,
				0.7071068286895752
			],
			"translation":[
				0,
				0.3254725933074951,
				0
			]
		},
		{
			"mesh":2,
			"name":"Couch - cushion - Left",
			"rotation":[
				0,
				0.7027225494384766,
				0,
				0.7114640474319458
			],
			"scale":[
				0.38547763228416443,
				0.11320619285106659,
				0.38547763228416443
			],
			"translation":[
				-0.7582835555076599,
				0.39105722308158875,
				0.06779825687408447
			]
		},
		{
			"mesh":2,
			"name":"Couch - cushion - Center",
			"scale":[
				0.38547760248184204,
				0.11320619285106659,
				0.38547760248184204
			],
			"translation":[
				0.005545556545257568,
				0.39105722308158875,
				0.06779825687408447
			]
		},
		{
			"mesh":2,
			"name":"Couch - cushion - Right",
			"rotation":[
				0,
				-0.7144551277160645,
				0,
				0.699681282043457
			],
			"scale":[
				0.38547763228416443,
				0.11320619285106659,
				0.38547763228416443
			],
			"translation":[
				0.7614653706550598,
				0.39105722308158875,
				0.06779825687408447
			]
		},
		{
			"mesh":3,
			"name":"Couch - Frame",
			"rotation":[
				0,
				0.7071067094802856,
				0,
				0.7071068286895752
			],
			"translation":[
				0,
				0.3254725933074951,
				0
			]
		},
		{
			"mesh":4,
			"name":"Pillow_Right.001",
			"rotation":[
				0.389218807220459,
				0.1385636031627655,
				-0.016645027324557304,
				0.9105119705200195
			],
			"scale":[
				0.6612627506256104,
				0.6612627506256104,
				0.6612627506256104
			],
			"translation":[
				-0.010048329830169678,
				0.6376944184303284,
				-0.011569231748580933
			]
		},
		{
			"mesh":5,
			"name":"Pillow_Left",
			"rotation":[
				0.5347299575805664,
				-0.19253592193126678,
				0.09186385571956635,
				0.81765216588974
			],
			"scale":[
				0.6988981366157532,
				0.698898196220398,
				0.6988981366157532
			],
			"translation":[
				0.868445873260498,
				0.6694499254226685,
				0.07593490183353424
			]
		},
		{
			"mesh":6,
			"name":"Pillow_Right",
			"rotation":[
				0.45080047845840454,
				0.14777077734470367,
				-0.052984777837991714,
				0.8787123560905457
			],
			"scale":[
				0.698898196220398,
				0.698898196220398,
				0.6988981366157532
			],
			"translation":[
				-0.8545287847518921,
				0.6531080603599548,
				-0.0018079057335853577
			]
		},
		{
			"mesh":7,
			"name":"Chocofur Pillows",
			"rotation":[
				0.15284548699855804,
				0.6516914963722229,
				0.13068310916423798,
				0.7313401103019714
			],
			"scale":[
				0.8646889925003052,
				0.8646891117095947,
				0.8646891117095947
			],
			"translation":[
				0.4118242859840393,
				0.6202559471130371,
				0.011443879455327988
			]
		},
		{
			"mesh":8,
			"name":"Chocofur Pillows.001",
			"rotation":[
				0.01351098157465458,
				0.68930983543396,
				-0.047884147614240646,
				0.7227562665939331
			],
			"scale":[
				0.8646891117095947,
				0.8646891117095947,
				0.8646891117095947
			],
			"translation":[
				-0.40021663904190063,
				0.565186083316803,
				0.06777769327163696
			]
		}
	],
	"materials":[
		{
			"doubleSided":true,
			"name":"Fabric_Backcushion"
		},
		{
			"doubleSided":true,
			"name":"Fabric_Armrests"
		},
		{
			"doubleSided":true,
			"name":"Fabric_Cushions"
		},
		{
			"doubleSided":true,
			"name":"Fabric"
		},
		{
			"doubleSided":true,
			"name":"Wood_Pegs"
		},
		{
			"doubleSided":true,
			"name":"Pillow Texture_Left"
		},
		{
			"doubleSided":true,
			"name":"Pillow Texture_Right"
		},
		{
			"doubleSided":true,
			"name":"Chocofur_free_Beds_01.003"
		}
	],
	"meshes":[
		{
			"name":"Cube.004",
			"primitives":[
				{
					"attributes":{
						"POSITION":0,
						"NORMAL":1,
						"TEXCOORD_0":2,
						"COLOR_0":3,
						"COLOR_1":4
					},
					"indices":5,
					"material":0
				}
			]
		},
		{
			"name":"Cube.003",
			"primitives":[
				{
					"attributes":{
						"POSITION":6,
						"NORMAL":7,
						"TEXCOORD_0":8,
						"COLOR_0":9,
						"COLOR_1":10
					},
					"indices":11,
					"material":1
				}
			]
		},
		{
			"name":"Cube.001",
			"primitives":[
				{
					"attributes":{
						"POSITION":12,
						"NORMAL":13,
						"TEXCOORD_0":14,
						"COLOR_0":15,
						"COLOR_1":16
					},
					"indices":17,
					"material":2
				}
			]
		},
		{
			"name":"Cube.002",
			"primitives":[
				{
					"attributes":{
						"POSITION":18,
						"NORMAL":19,
						"TEXCOORD_0":20,
						"COLOR_0":21,
						"COLOR_1":22
					},
					"indices":23,
					"material":3
				},
				{
					"attributes":{
						"POSITION":24,
						"NORMAL":25,
						"TEXCOORD_0":26,
						"COLOR_0":27,
						"COLOR_1":28
					},
					"indices":29,
					"material":4
				}
			]
		},
		{
			"name":"Cube.000",
			"primitives":[
				{
					"attributes":{
						"POSITION":30,
						"NORMAL":31,
						"TEXCOORD_0":32
					},
					"indices":33,
					"material":5
				}
			]
		},
		{
			"name":"Cube.005",
			"primitives":[
				{
					"attributes":{
						"POSITION":34,
						"NORMAL":35,
						"TEXCOORD_0":36
					},
					"indices":37,
					"material":6
				}
			]
		},
		{
			"name":"Cube.007",
			"primitives":[
				{
					"attributes":{
						"POSITION":38,
						"NORMAL":39,
						"TEXCOORD_0":40
					},
					"indices":33,
					"material":5
				}
			]
		},
		{
			"name":"Chocofur_free_Beds_01.000",
			"primitives":[
				{
					"attributes":{
						"POSITION":41,
						"NORMAL":42,
						"TEXCOORD_0":43
					},
					"indices":44,
					"material":7
				}
			]
		},
		{
			"name":"Chocofur_free_Beds_01.001",
			"primitives":[
				{
					"attributes":{
						"POSITION":45,
						"NORMAL":46,
						"TEXCOORD_0":47
					},
					"indices":44,
					"material":7
				}
			]
		}
	],
	"accessors":[
		{
			"bufferView":0,
			"componentType":5126,
			"count":1554,
			"max":[
				0.5670382380485535,
				0.7804133892059326,
				1.2461642026901245
			],
			"min":[
				0.08132805675268173,
				0.07931502908468246,
				-1.2437151670455933
			],
			"type":"VEC3"
		},
		{
			"bufferView":1,
			"componentType":5126,
			"count":1554,
			"type":"VEC3"
		},
		{
			"bufferView":2,
			"componentType":5126,
			"count":1554,
			"type":"VEC2"
		},
		{
			"bufferView":3,
			"componentType":5121,
			"count":1554,
			"normalized":true,
			"type":"VEC4"
		},
		{
			"bufferView":4,
			"componentType":5126,
			"count":1554,
			"type":"VEC3"
		},
		{
			"bufferView":5,
			"componentType":5123,
			"count":6180,
			"type":"SCALAR"
		},
		{
			"bufferView":6,
			"componentType":5126,
			"count":552,
			"max":[
				0.5067222118377686,
				0.5571756362915039,
				1.4022783041000366
			],
			"min":[
				-0.4981992542743683,
				0.08879750967025757,
				-1.4204881191253662
			],
			"type":"VEC3"
		},
		{
			"bufferView":7,
			"componentType":5126,
			"count":552,
			"type":"VEC3"
		},
		{
			"bufferView":8,
			"componentType":5126,
			"count":552,
			"type":"VEC2"
		},
		{
			"bufferView":9,
			"componentType":5121,
			"count":552,
			"normalized":true,
			"type":"VEC4"
		},
		{
			"bufferView":10,
			"componentType":5126,
			"count":552,
			"type":"VEC3"
		},
		{
			"bufferView":11,
			"componentType":5123,
			"count":2280,
			"type":"SCALAR"
		},
		{
			"bufferView":12,
			"componentType":5126,
			"count":1368,
			"max":[
				1.0386804342269897,
				0.8564133644104004,
				1.037316083908081
			],
			"min":[
				-1.0326347351074219,
				-1.1217637062072754,
				-1.0316261053085327
			],
			"type":"VEC3"
		},
		{
			"bufferView":13,
			"componentType":5126,
			"count":1368,
			"type":"VEC3"
		},
		{
			"bufferView":14,
			"componentType":5126,
			"count":1368,
			"type":"VEC2"
		},
		{
			"bufferView":15,
			"componentType":5121,
			"count":1368,
			"normalized":true,
			"type":"VEC4"
		},
		{
			"bufferView":16,
			"componentType":5126,
			"count":1368,
			"type":"VEC3"
		},
		{
			"bufferView":17,
			"componentType":5123,
			"count":6144,
			"type":"SCALAR"
		},
		{
			"bufferView":18,
			"componentType":5126,
			"count":543,
			"max":[
				0.4664668142795563,
				0.3303268253803253,
				1.3531876802444458
			],
			"min":[
				-0.49422651529312134,
				-0.27338141202926636,
				-1.3532108068466187
			],
			"type":"VEC3"
		},
		{
			"bufferView":19,
			"componentType":5126,
			"count":543,
			"type":"VEC3"
		},
		{
			"bufferView":20,
			"componentType":5126,
			"count":543,
			"type":"VEC2"
		},
		{
			"bufferView":21,
			"componentType":5121,
			"count":543,
			"normalized":true,
			"type":"VEC4"
		},
		{
			"bufferView":22,
			"componentType":5126,
			"count":543,
			"type":"VEC3"
		},
		{
			"bufferView":23,
			"componentType":5123,
			"count":2520,
			"type":"SCALAR"
		},
		{
			"bufferView":24,
			"componentType":5126,
			"count":328,
			"max":[
				0.37672868371009827,
				-0.22918808460235596,
				1.1600195169448853
			],
			"min":[
				-0.37618622183799744,
				-0.3254454731941223,
				-1.1600192785263062
			],
			"type":"VEC3"
		},
		{
			"bufferView":25,
			"componentType":5126,
			"count":328,
			"type":"VEC3"
		},
		{
			"bufferView":26,
			"componentType":5126,
			"count":328,
			"type":"VEC2"
		},
		{
			"bufferView":27,
			"componentType":5121,
			"count":328,
			"normalized":true,
			"type":"VEC4"
		},
		{
			"bufferView":28,
			"componentType":5126,
			"count":328,
			"type":"VEC3"
		},
		{
			"bufferView":29,
			"componentType":5123,
			"count":1488,
			"type":"SCALAR"
		},
		{
			"bufferView":30,
			"componentType":5126,
			"count":626,
			"max":[
				0.3248971700668335,
				0.162591814994812,
				0.36712536215782166
			],
			"min":[
				-0.37712931632995605,
				-0.16885952651500702,
				-0.36171889305114746
			],
			"type":"VEC3"
		},
		{
			"bufferView":31,
			"componentType":5126,
			"count":626,
			"type":"VEC3"
		},
		{
			"bufferView":32,
			"componentType":5126,
			"count":626,
			"type":"VEC2"
		},
		{
			"bufferView":33,
			"componentType":5123,
			"count":3456,
			"type":"SCALAR"
		},
		{
			"bufferView":34,
			"componentType":5126,
			"count":626,
			"max":[
				0.3503924012184143,
				0.15992137789726257,
				0.36335045099258423
			],
			"min":[
				-0.3637455999851227,
				-0.16878153383731842,
				-0.35960671305656433
			],
			"type":"VEC3"
		},
		{
			"bufferView":35,
			"componentType":5126,
			"count":626,
			"type":"VEC3"
		},
		{
			"bufferView":36,
			"componentType":5126,
			"count":626,
			"type":"VEC2"
		},
		{
			"bufferView":37,
			"componentType":5123,
			"count":3456,
			"type":"SCALAR"
		},
		{
			"bufferView":38,
			"componentType":5126,
			"count":626,
			"max":[
				0.3248971700668335,
				0.162591814994812,
				0.36712536215782166
			],
			"min":[
				-0.37712931632995605,
				-0.16885952651500702,
				-0.36171889305114746
			],
			"type":"VEC3"
		},
		{
			"bufferView":39,
			"componentType":5126,
			"count":626,
			"type":"VEC3"
		},
		{
			"bufferView":40,
			"componentType":5126,
			"count":626,
			"type":"VEC2"
		},
		{
			"bufferView":41,
			"componentType":5126,
			"count":1985,
			"max":[
				0.29662007093429565,
				0.14109937846660614,
				0.32533666491508484
			],
			"min":[
				-0.28912296891212463,
				-0.1137872189283371,
				-0.3249519169330597
			],
			"type":"VEC3"
		},
		{
			"bufferView":42,
			"componentType":5126,
			"count":1985,
			"type":"VEC3"
		},
		{
			"bufferView":43,
			"componentType":5126,
			"count":1985,
			"type":"VEC2"
		},
		{
			"bufferView":44,
			"componentType":5123,
			"count":11244,
			"type":"SCALAR"
		},
		{
			"bufferView":45,
			"componentType":5126,
			"count":1985,
			"max":[
				0.29662007093429565,
				0.14109937846660614,
				0.32533666491508484
			],
			"min":[
				-0.28912296891212463,
				-0.1137872189283371,
				-0.3249519169330597
			],
			"type":"VEC3"
		},
		{
			"bufferView":46,
			"componentType":5126,
			"count":1985,
			"type":"VEC3"
		},
		{
			"bufferView":47,
			"componentType":5126,
			"count":1985,
			"type":"VEC2"
		}
	],
	"bufferViews":[
		{
			"buffer":0,
			"byteLength":18648,
			"byteOffset":0,
			"target":34962
		},
		{
			"buffer":0,
			"byteLength":18648,
			"byteOffset":18648,
			"target":34962
		},
		{
			"buffer":0,
			"byteLength":12432,
			"byteOffset":37296,
			"target":34962
		},
		{
			"buffer":0,
			"byteLength":6216,
			"byteOffset":49728,
			"target":34962
		},
		{
			"buffer":0,
			"byteLength":18648,
			"byteOffset":55944,
			"target":34962
		},
		{
			"buffer":0,
			"byteLength":12360,
			"byteOffset":74592,
			"target":34963
		},
		{
			"buffer":0,
			"byteLength":6624,
			"byteOffset":86952,
			"target":34962
		},
		{
			"buffer":0,
			"byteLength":6624,
			"byteOffset":93576,
			"target":34962
		},
		{
			"buffer":0,
			"byteLength":4416,
			"byteOffset":100200,
			"target":34962
		},
		{
			"buffer":0,
			"byteLength":2208,
			"byteOffset":104616,
			"target":34962
		},
		{
			"buffer":0,
			"byteLength":6624,
			"byteOffset":106824,
			"target":34962
		},
		{
			"buffer":0,
			"byteLength":4560,
			"byteOffset":113448,
			"target":34963
		},
		{
			"buffer":0,
			"byteLength":16416,
			"byteOffset":118008,
			"target":34962
		},
		{
			"buffer":0,
			"byteLength":16416,
			"byteOffset":134424,
			"target":34962
		},
		{
			"buffer":0,
			"byteLength":10944,
			"byteOffset":150840,
			"target":34962
		},
		{
			"buffer":0,
			"byteLength":5472,
			"byteOffset":161784,
			"target":34962
		},
		{
			"buffer":0,
			"byteLength":16416,
			"byteOffset":167256,
			"target":34962
		},
		{
			"buffer":0,
			"byteLength":12288,
			"byteOffset":183672,
			"target":34963
		},
		{
			"buffer":0,
			"byteLength":6516,
			"byteOffset":195960,
			"target":34962
		},
		{
			"buffer":0,
			"byteLength":6516,
			"byteOffset":202476,
			"target":34962
		},
		{
			"buffer":0,
			"byteLength":4344,
			"byteOffset":208992,
			"target":34962
		},
		{
			"buffer":0,
			"byteLength":2172,
			"byteOffset":213336,
			"target":34962
		},
		{
			"buffer":0,
			"byteLength":6516,
			"byteOffset":215508,
			"target":34962
		},
		{
			"buffer":0,
			"byteLength":5040,
			"byteOffset":222024,
			"target":34963
		},
		{
			"buffer":0,
			"byteLength":3936,
			"byteOffset":227064,
			"target":34962
		},
		{
			"buffer":0,
			"byteLength":3936,
			"byteOffset":231000,
			"target":34962
		},
		{
			"buffer":0,
			"byteLength":2624,
			"byteOffset":234936,
			"target":34962
		},
		{
			"buffer":0,
			"byteLength":1312,
			"byteOffset":237560,
			"target":34962
		},
		{
			"buffer":0,
			"byteLength":3936,
			"byteOffset":238872,
			"target":34962
		},
		{
			"buffer":0,
			"byteLength":2976,
			"byteOffset":242808,
			"target":34963
		},
		{
			"buffer":0,
			"byteLength":7512,
			"byteOffset":245784,
			"target":34962
		},
		{
			"buffer":0,
			"byteLength":7512,
			"byteOffset":253296,
			"target":34962
		},
		{
			"buffer":0,
			"byteLength":5008,
			"byteOffset":260808,
			"target":34962
		},
		{
			"buffer":0,
			"byteLength":6912,
			"byteOffset":265816,
			"target":34963
		},
		{
			"buffer":0,
			"byteLength":7512,
			"byteOffset":272728,
			"target":34962
		},
		{
			"buffer":0,
			"byteLength":7512,
			"byteOffset":280240,
			"target":34962
		},
		{
			"buffer":0,
			"byteLength":5008,
			"byteOffset":287752,
			"target":34962
		},
		{
			"buffer":0,
			"byteLength":6912,
			"byteOffset":292760,
			"target":34963
		},
		{
			"buffer":0,
			"byteLength":7512,
			"byteOffset":299672,
			"target":34962
		},
		{
			"buffer":0,
			"byteLength":7512,
			"byteOffset":307184,
			"target":34962
		},
		{
			"buffer":0,
			"byteLength":5008,
			"byteOffset":314696,
			"target":34962
		},
		{
			"buffer":0,
			"byteLength":23820,
			"byteOffset":319704,
			"target":34962
		},
		{
			"buffer":0,
			"byteLength":23820,
			"byteOffset":343524,
			"target":34962
		},
		{
			"buffer":0,
			"byteLength":15880,
			"byteOffset":367344,
			"target":34962
		},
		{
			"buffer":0,
			"byteLength":22488,
			"byteOffset":383224,
			"target":34963
		},
		{
			"buffer":0,
			"byteLength":23820,
			"byteOffset":405712,
			"target":34962
		},
		{
			"buffer":0,
			"byteLength":23820,
			"byteOffset":429532,
			"target":34962
		},
		{
			"buffer":0,
			"byteLength":15880,
			"byteOffset":453352,
			"target":34962
		}
	],
	"buffers":[
		{
			"byteLength":469232,
			"uri":"sofa.bin"
		}
	]
}
