{
	"asset":{
		"generator":"Khronos glTF Blender I/O v4.2.83",
		"version":"2.0"
	},
	"extensionsUsed":[
		"KHR_materials_specular",
		"KHR_materials_ior",
		"KHR_materials_sheen"
	],
	"scene":0,
	"scenes":[
		{
			"name":"Scene",
			"nodes":[
				0,
				1,
				2
			]
		}
	],
	"nodes":[
		{
			"mesh":0,
			"name":"Mesh2 Group1 SMILE_lounge_chair___wood_base___3D1 Model",
			"rotation":[
				0.6644631028175354,
				-0.24184474349021912,
				0.2418447881937027,
				0.6644629836082458
			],
			"scale":[
				0.00367200025357306,
				0.00367200025357306,
				0.00367200025357306
			],
			"translation":[
				-0.03722977265715599,
				0.0492856502532959,
				0.2967626452445984
			]
		},
		{
			"mesh":1,
			"name":"Mesh5 Group2 SMILE_lounge_chair___wood_base___3D1 Model",
			"rotation":[
				0.6644631028175354,
				-0.24184474349021912,
				0.2418447881937027,
				0.6644629836082458
			],
			"scale":[
				0.00367200025357306,
				0.00367200025357306,
				0.00367200025357306
			],
			"translation":[
				-0.03722977638244629,
				0.04928553104400635,
				0.2967626452445984
			]
		},
		{
			"mesh":2,
			"name":"Mesh6 Group3 SMILE_lounge_chair___wood_base___3D1 Model",
			"rotation":[
				0.6644631028175354,
				-0.24184474349021912,
				0.2418447881937027,
				0.6644629836082458
			],
			"scale":[
				0.00367200025357306,
				0.00367200025357306,
				0.00367200025357306
			],
			"translation":[
				-0.037229783833026886,
				0.04928554594516754,
				0.2967626452445984
			]
		}
	],
	"materials":[
		{
			"doubleSided":true,
			"name":"Rubber - Black.001",
			"pbrMetallicRoughness":{
				"baseColorFactor":[
					0.008074763230979443,
					0.008074763230979443,
					0.008074763230979443,
					1
				],
				"metallicFactor":0,
				"roughnessFactor":0.3499999940395355
			}
		},
		{
			"doubleSided":true,
			"extensions":{
				"KHR_materials_specular":{
					"specularColorFactor":[
						1.399999976158142,
						1.399999976158142,
						1.399999976158142
					]
				},
				"KHR_materials_sheen":{
					"sheenColorFactor":[
						1.0,
						1.0,
						1.0
					],
					"sheenRoughnessFactor":0.5
				},
				"KHR_materials_ior":{
					"ior":1.4500000476837158
				}
			},
			"name":"Fabric",
			"pbrMetallicRoughness":{
				"metallicFactor":0,
				"roughnessFactor":0.800000011920929
			}
		},
		{
			"doubleSided":true,
			"name":"Material",
			"pbrMetallicRoughness":{
				"baseColorFactor":[
					0.800000011920929,
					0.800000011920929,
					0.800000011920929,
					1
				],
				"metallicFactor":0,
				"roughnessFactor":0.5
			}
		}
	],
	"meshes":[
		{
			"name":"Mesh2 Group1 SMILE_lounge_chair___wood_base___3D1 Model",
			"primitives":[
				{
					"attributes":{
						"POSITION":0,
						"NORMAL":1,
						"TEXCOORD_0":2
					},
					"indices":3,
					"material":0
				}
			]
		},
		{
			"name":"Mesh5 Group2 SMILE_lounge_chair___wood_base___3D1 Model",
			"primitives":[
				{
					"attributes":{
						"POSITION":4,
						"NORMAL":5,
						"TEXCOORD_0":6
					},
					"indices":7,
					"material":1
				}
			]
		},
		{
			"name":"Mesh6 Group3 SMILE_lounge_chair___wood_base___3D1 Model",
			"primitives":[
				{
					"attributes":{
						"POSITION":8,
						"NORMAL":9,
						"TEXCOORD_0":10
					},
					"indices":11,
					"material":2
				}
			]
		}
	],
	"accessors":[
		{
			"bufferView":0,
			"componentType":5126,
			"count":1795,
			"max":[
				287.656005859375,
				270.80938720703125,
				394.685546875
			],
			"min":[
				-287.6559753417969,
				-262.1505126953125,
				97.5775146484375
			],
			"type":"VEC3"
		},
		{
			"bufferView":1,
			"componentType":5126,
			"count":1795,
			"type":"VEC3"
		},
		{
			"bufferView":2,
			"componentType":5126,
			"count":1795,
			"type":"VEC2"
		},
		{
			"bufferView":3,
			"componentType":5123,
			"count":6240,
			"type":"SCALAR"
		},
		{
			"bufferView":4,
			"componentType":5126,
			"count":22366,
			"max":[
				408.9010009765625,
				344.260498046875,
				138.01150512695312
			],
			"min":[
				-408.9019775390625,
				-447.114501953125,
				-630.2744140625
			],
			"type":"VEC3"
		},
		{
			"bufferView":5,
			"componentType":5126,
			"count":22366,
			"type":"VEC3"
		},
		{
			"bufferView":6,
			"componentType":5126,
			"count":22366,
			"type":"VEC2"
		},
		{
			"bufferView":7,
			"componentType":5123,
			"count":102420,
			"type":"SCALAR"
		},
		{
			"bufferView":8,
			"componentType":5126,
			"count":6119,
			"max":[
				272.3169860839844,
				305.18341064453125,
				89.68450927734375
			],
			"min":[
				-272.3160095214844,
				-202.3295135498047,
				-13.97646713256836
			],
			"type":"VEC3"
		},
		{
			"bufferView":9,
			"componentType":5126,
			"count":6119,
			"type":"VEC3"
		},
		{
			"bufferView":10,
			"componentType":5126,
			"count":6119,
			"type":"VEC2"
		},
		{
			"bufferView":11,
			"componentType":5123,
			"count":28245,
			"type":"SCALAR"
		}
	],
	"bufferViews":[
		{
			"buffer":0,
			"byteLength":21540,
			"byteOffset":0,
			"target":34962
		},
		{
			"buffer":0,
			"byteLength":21540,
			"byteOffset":21540,
			"target":34962
		},
		{
			"buffer":0,
			"byteLength":14360,
			"byteOffset":43080,
			"target":34962
		},
		{
			"buffer":0,
			"byteLength":12480,
			"byteOffset":57440,
			"target":34963
		},
		{
			"buffer":0,
			"byteLength":268392,
			"byteOffset":69920,
			"target":34962
		},
		{
			"buffer":0,
			"byteLength":268392,
			"byteOffset":338312,
			"target":34962
		},
		{
			"buffer":0,
			"byteLength":178928,
			"byteOffset":606704,
			"target":34962
		},
		{
			"buffer":0,
			"byteLength":204840,
			"byteOffset":785632,
			"target":34963
		},
		{
			"buffer":0,
			"byteLength":73428,
			"byteOffset":990472,
			"target":34962
		},
		{
			"buffer":0,
			"byteLength":73428,
			"byteOffset":1063900,
			"target":34962
		},
		{
			"buffer":0,
			"byteLength":48952,
			"byteOffset":1137328,
			"target":34962
		},
		{
			"buffer":0,
			"byteLength":56490,
			"byteOffset":1186280,
			"target":34963
		}
	],
	"buffers":[
		{
			"byteLength":1242772,
			"uri":"chair.bin"
		}
	]
}
