{
	"asset":{
		"generator":"Khronos glTF Blender I/O v4.2.83",
		"version":"2.0"
	},
	"extensionsUsed":[
		"KHR_materials_unlit"
	],
	"scene":0,
	"scenes":[
		{
			"name":"Scene",
			"nodes":[
				0,
				1,
				2,
				3
			]
		}
	],
	"nodes":[
		{
			"mesh":0,
			"name":"Plane",
			"rotation":[
				0.7071068286895752,
				0,
				0,
				0.7071068286895752
			],
			"scale":[
				1.922714352607727,
				1,
				1
			],
			"translation":[
				0,
				1.4552979469299316,
				-0.09120674431324005
			]
		},
		{
			"mesh":1,
			"name":"Cube",
			"scale":[
				1.3571641445159912,
				0.743165910243988,
				1
			],
			"translation":[
				0,
				0.04258322715759277,
				0
			]
		},
		{
			"mesh":2,
			"name":"Cube.001",
			"scale":[
				1.3571641445159912,
				0.743165910243988,
				1
			],
			"translation":[
				0,
				0.04258322715759277,
				0
			]
		},
		{
			"mesh":3,
			"name":"Cube.002",
			"scale":[
				1.3571641445159912,
				0.743165910243988,
				1
			],
			"translation":[
				0,
				0.04258322715759277,
				0.03184058144688606
			]
		}
	],
	"materials":[
		{
			"doubleSided":true,
			"name":"Material.002",
			"pbrMetallicRoughness":{
				"baseColorFactor":[
					0,
					0,
					0,
					1
				],
				"metallicFactor":0,
				"roughnessFactor":0.5
			}
		},
		{
			"doubleSided":true,
			"extensions":{
				"KHR_materials_unlit":{}
			},
			"name":"Material.003",
			"pbrMetallicRoughness":{
				"metallicFactor":0,
				"roughnessFactor":0.9
			}
		},
		{
			"doubleSided":true,
			"name":"Material.005",
			"pbrMetallicRoughness":{
				"baseColorFactor":[
					0.12822343409061432,
					0,
					0.000279512838460505,
					1
				],
				"metallicFactor":0,
				"roughnessFactor":0.5
			}
		}
	],
	"meshes":[
		{
			"name":"Plane.001",
			"primitives":[
				{
					"attributes":{
						"POSITION":0,
						"NORMAL":1,
						"TEXCOORD_0":2
					},
					"indices":3,
					"material":0
				},
				{
					"attributes":{
						"POSITION":4,
						"NORMAL":5,
						"TEXCOORD_0":6
					},
					"indices":7,
					"material":1
				}
			]
		},
		{
			"name":"Cube.001",
			"primitives":[
				{
					"attributes":{
						"POSITION":8,
						"NORMAL":9,
						"TEXCOORD_0":10
					},
					"indices":11,
					"material":2
				}
			]
		},
		{
			"name":"Cube.002",
			"primitives":[
				{
					"attributes":{
						"POSITION":12,
						"NORMAL":13,
						"TEXCOORD_0":14
					},
					"indices":15,
					"material":2
				}
			]
		},
		{
			"name":"Cube.003",
			"primitives":[
				{
					"attributes":{
						"POSITION":16,
						"NORMAL":17,
						"TEXCOORD_0":18
					},
					"indices":19,
					"material":2
				}
			]
		}
	],
	"accessors":[
		{
			"bufferView":0,
			"componentType":5126,
			"count":473,
			"max":[
				1,
				0,
				1
			],
			"min":[
				-1,
				-0.2862647473812103,
				-1
			],
			"type":"VEC3"
		},
		{
			"bufferView":1,
			"componentType":5126,
			"count":473,
			"type":"VEC3"
		},
		{
			"bufferView":2,
			"componentType":5126,
			"count":473,
			"type":"VEC2"
		},
		{
			"bufferView":3,
			"componentType":5123,
			"count":2646,
			"type":"SCALAR"
		},
		{
			"bufferView":4,
			"componentType":5126,
			"count":72,
			"max":[
				0.9811839461326599,
				-0.03346405178308487,
				0.964192807674408
			],
			"min":[
				-0.9811839461326599,
				-0.20751318335533142,
				-0.964192807674408
			],
			"type":"VEC3"
		},
		{
			"bufferView":5,
			"componentType":5126,
			"count":72,
			"type":"VEC3"
		},
		{
			"bufferView":6,
			"componentType":5126,
			"count":72,
			"type":"VEC2"
		},
		{
			"bufferView":7,
			"componentType":5123,
			"count":306,
			"type":"SCALAR"
		},
		{
			"bufferView":8,
			"componentType":5126,
			"count":1069,
			"max":[
				0.20734189450740814,
				1.8901031017303467,
				0.5092717409133911
			],
			"min":[
				-1.190487027168274,
				0.15631894767284393,
				-0.5476155281066895
			],
			"type":"VEC3"
		},
		{
			"bufferView":9,
			"componentType":5126,
			"count":1069,
			"type":"VEC3"
		},
		{
			"bufferView":10,
			"componentType":5126,
			"count":1069,
			"type":"VEC2"
		},
		{
			"bufferView":11,
			"componentType":5123,
			"count":5481,
			"type":"SCALAR"
		},
		{
			"bufferView":12,
			"componentType":5126,
			"count":54,
			"max":[
				-0.050511717796325684,
				0.23403899371623993,
				0.5092717409133911
			],
			"min":[
				-1.2013920545578003,
				-0.06246120110154152,
				-0.5335662961006165
			],
			"type":"VEC3"
		},
		{
			"bufferView":13,
			"componentType":5126,
			"count":54,
			"type":"VEC3"
		},
		{
			"bufferView":14,
			"componentType":5126,
			"count":54,
			"type":"VEC2"
		},
		{
			"bufferView":15,
			"componentType":5123,
			"count":198,
			"type":"SCALAR"
		},
		{
			"bufferView":16,
			"componentType":5126,
			"count":60,
			"max":[
				0.050511717796325684,
				0.23376215994358063,
				-0.5335662961006165
			],
			"min":[
				-0.050511717796325684,
				-0.056618377566337585,
				-1.013127088546753
			],
			"type":"VEC3"
		},
		{
			"bufferView":17,
			"componentType":5126,
			"count":60,
			"type":"VEC3"
		},
		{
			"bufferView":18,
			"componentType":5126,
			"count":60,
			"type":"VEC2"
		},
		{
			"bufferView":19,
			"componentType":5123,
			"count":204,
			"type":"SCALAR"
		}
	],
	"bufferViews":[
		{
			"buffer":0,
			"byteLength":5676,
			"byteOffset":0,
			"target":34962
		},
		{
			"buffer":0,
			"byteLength":5676,
			"byteOffset":5676,
			"target":34962
		},
		{
			"buffer":0,
			"byteLength":3784,
			"byteOffset":11352,
			"target":34962
		},
		{
			"buffer":0,
			"byteLength":5292,
			"byteOffset":15136,
			"target":34963
		},
		{
			"buffer":0,
			"byteLength":864,
			"byteOffset":20428,
			"target":34962
		},
		{
			"buffer":0,
			"byteLength":864,
			"byteOffset":21292,
			"target":34962
		},
		{
			"buffer":0,
			"byteLength":576,
			"byteOffset":22156,
			"target":34962
		},
		{
			"buffer":0,
			"byteLength":612,
			"byteOffset":22732,
			"target":34963
		},
		{
			"buffer":0,
			"byteLength":12828,
			"byteOffset":23344,
			"target":34962
		},
		{
			"buffer":0,
			"byteLength":12828,
			"byteOffset":36172,
			"target":34962
		},
		{
			"buffer":0,
			"byteLength":8552,
			"byteOffset":49000,
			"target":34962
		},
		{
			"buffer":0,
			"byteLength":10962,
			"byteOffset":57552,
			"target":34963
		},
		{
			"buffer":0,
			"byteLength":648,
			"byteOffset":68516,
			"target":34962
		},
		{
			"buffer":0,
			"byteLength":648,
			"byteOffset":69164,
			"target":34962
		},
		{
			"buffer":0,
			"byteLength":432,
			"byteOffset":69812,
			"target":34962
		},
		{
			"buffer":0,
			"byteLength":396,
			"byteOffset":70244,
			"target":34963
		},
		{
			"buffer":0,
			"byteLength":720,
			"byteOffset":70640,
			"target":34962
		},
		{
			"buffer":0,
			"byteLength":720,
			"byteOffset":71360,
			"target":34962
		},
		{
			"buffer":0,
			"byteLength":480,
			"byteOffset":72080,
			"target":34962
		},
		{
			"buffer":0,
			"byteLength":408,
			"byteOffset":72560,
			"target":34963
		}
	],
	"buffers":[
		{
			"byteLength":72968,
			"uri":"monitor.bin"
		}
	]
}
