{
	"asset":{
		"generator":"Khronos glTF Blender I/O v4.2.83",
		"version":"2.0"
	},
	"extensionsUsed":[
		"KHR_materials_emissive_strength",
		"KHR_materials_specular",
		"KHR_materials_ior"
	],
	"scene":0,
	"scenes":[
		{
			"name":"Scene",
			"nodes":[
				0
			]
		}
	],
	"nodes":[
		{
			"mesh":0,
			"name":"Lamp",
			"scale":[
				0.009999999776482582,
				0.009999999776482582,
				0.009999999776482582
			]
		}
	],
	"materials":[
		{
			"doubleSided":true,
			"extensions":{
				"KHR_materials_specular":{
					"specularColorFactor":[
						2.0,
						2.0,
						2.0
					]
				},
				"KHR_materials_ior":{
					"ior":1.4500000476837158
				}
			},
			"name":"Material #2100474007",
			"pbrMetallicRoughness":{
				"baseColorTexture":{
					"index":0
				},
				"metallicFactor":0.30000001192092896,
				"roughnessFactor":0.15000000596046448
			}
		},
		{
			"alphaMode":"BLEND",
			"doubleSided":true,
			"extensions":{
				"KHR_materials_specular":{
					"specularColorFactor":[
						2.0,
						2.0,
						2.0
					]
				},
				"KHR_materials_ior":{
					"ior":1.4500000476837158
				}
			},
			"name":"Fabric",
			"normalTexture":{
				"index":1,
				"scale":0.20000000298023224
			},
			"pbrMetallicRoughness":{
				"baseColorFactor":[
					1,
					1,
					1,
					0.8745098114013672
				],
				"baseColorTexture":{
					"index":2
				},
				"metallicRoughnessTexture":{
					"index":3
				},
				"roughnessFactor":0.5527864098548889
			}
		},
		{
			"doubleSided":true,
			"extensions":{
				"KHR_materials_specular":{
					"specularColorFactor":[
						2.0,
						2.0,
						2.0
					]
				},
				"KHR_materials_ior":{
					"ior":1.4500000476837158
				}
			},
			"name":"Metal",
			"pbrMetallicRoughness":{
				"baseColorFactor":[
					0.46267467737197876,
					0.39446961879730225,
					0.3493026793003082,
					1
				],
				"roughnessFactor":0.20000000298023224
			}
		},
		{
			"doubleSided":true,
			"emissiveFactor":[
				1,
				1,
				1
			],
			"extensions":{
				"KHR_materials_emissive_strength":{
					"emissiveStrength":3
				},
				"KHR_materials_specular":{
					"specularFactor":0
				},
				"KHR_materials_ior":{
					"ior":1.4500000476837158
				}
			},
			"name":"Material #2100473919",
			"pbrMetallicRoughness":{
				"baseColorFactor":[
					0,
					0,
					0,
					1
				],
				"metallicFactor":0,
				"roughnessFactor":0.5527864098548889
			}
		},
		{
			"doubleSided":true,
			"extensions":{
				"KHR_materials_specular":{
					"specularColorFactor":[
						2.0,
						2.0,
						2.0
					]
				},
				"KHR_materials_ior":{
					"ior":1.4500000476837158
				}
			},
			"name":"Lamp",
			"pbrMetallicRoughness":{
				"baseColorFactor":[
					0.5,
					0.5,
					0.5,
					1
				],
				"metallicFactor":0,
				"roughnessFactor":0.5527864098548889
			}
		},
		{
			"doubleSided":true,
			"extensions":{
				"KHR_materials_specular":{
					"specularColorFactor":[
						2.0,
						2.0,
						2.0
					]
				},
				"KHR_materials_ior":{
					"ior":1.4500000476837158
				}
			},
			"name":"plastic",
			"pbrMetallicRoughness":{
				"baseColorFactor":[
					0,
					0,
					0,
					1
				],
				"metallicFactor":0,
				"roughnessFactor":0.20000000298023224
			}
		}
	],
	"meshes":[
		{
			"name":"Mesh",
			"primitives":[
				{
					"attributes":{
						"POSITION":0,
						"NORMAL":1,
						"TEXCOORD_0":2
					},
					"indices":3,
					"material":0
				},
				{
					"attributes":{
						"POSITION":4,
						"NORMAL":5,
						"TEXCOORD_0":6
					},
					"indices":7,
					"material":1
				},
				{
					"attributes":{
						"POSITION":8,
						"NORMAL":9,
						"TEXCOORD_0":10
					},
					"indices":11,
					"material":2
				},
				{
					"attributes":{
						"POSITION":12,
						"NORMAL":13,
						"TEXCOORD_0":14
					},
					"indices":15,
					"material":3
				},
				{
					"attributes":{
						"POSITION":16,
						"NORMAL":17,
						"TEXCOORD_0":18
					},
					"indices":19,
					"material":4
				},
				{
					"attributes":{
						"POSITION":20,
						"NORMAL":21,
						"TEXCOORD_0":22
					},
					"indices":23,
					"material":5
				}
			]
		}
	],
	"textures":[
		{
			"sampler":0,
			"source":0
		},
		{
			"sampler":0,
			"source":1
		},
		{
			"sampler":0,
			"source":2
		},
		{
			"sampler":0,
			"source":3
		}
	],
	"images":[
		{
			"mimeType":"image/png",
			"name":"Map #2070297335",
			"uri":"Map%202070297335.png"
		},
		{
			"mimeType":"image/jpeg",
			"name":"bump",
			"uri":"bump.jpg"
		},
		{
			"mimeType":"image/png",
			"name":"Fabric_d",
			"uri":"Fabric_d.png"
		},
		{
			"mimeType":"image/png",
			"name":"Ref",
			"uri":"Ref.png"
		}
	],
	"accessors":[
		{
			"bufferView":0,
			"componentType":5126,
			"count":57287,
			"max":[
				6.432374477386475,
				25.7989559173584,
				6.4325408935546875
			],
			"min":[
				-6.432953357696533,
				2.8535432647913694e-05,
				-6.432535171508789
			],
			"type":"VEC3"
		},
		{
			"bufferView":1,
			"componentType":5126,
			"count":57287,
			"type":"VEC3"
		},
		{
			"bufferView":2,
			"componentType":5126,
			"count":57287,
			"type":"VEC2"
		},
		{
			"bufferView":3,
			"componentType":5123,
			"count":340758,
			"type":"SCALAR"
		},
		{
			"bufferView":4,
			"componentType":5126,
			"count":7425,
			"max":[
				14.000000953674316,
				47.04229736328125,
				14.00000286102295
			],
			"min":[
				-13.999999046325684,
				26.108049392700195,
				-13.99999713897705
			],
			"type":"VEC3"
		},
		{
			"bufferView":5,
			"componentType":5126,
			"count":7425,
			"type":"VEC3"
		},
		{
			"bufferView":6,
			"componentType":5126,
			"count":7425,
			"type":"VEC2"
		},
		{
			"bufferView":7,
			"componentType":5123,
			"count":37038,
			"type":"SCALAR"
		},
		{
			"bufferView":8,
			"componentType":5126,
			"count":66053,
			"max":[
				13.983076095581055,
				50.00003433227539,
				13.983081817626953
			],
			"min":[
				-13.983654022216797,
				25.798704147338867,
				-13.983076095581055
			],
			"type":"VEC3"
		},
		{
			"bufferView":9,
			"componentType":5126,
			"count":66053,
			"type":"VEC3"
		},
		{
			"bufferView":10,
			"componentType":5126,
			"count":66053,
			"type":"VEC2"
		},
		{
			"bufferView":11,
			"componentType":5125,
			"count":333309,
			"type":"SCALAR"
		},
		{
			"bufferView":12,
			"componentType":5126,
			"count":1675,
			"max":[
				2.0535240173339844,
				40.607391357421875,
				1.9748135805130005
			],
			"min":[
				-2.003383159637451,
				35.439483642578125,
				-2.0820136070251465
			],
			"type":"VEC3"
		},
		{
			"bufferView":13,
			"componentType":5126,
			"count":1675,
			"type":"VEC3"
		},
		{
			"bufferView":14,
			"componentType":5126,
			"count":1675,
			"type":"VEC2"
		},
		{
			"bufferView":15,
			"componentType":5123,
			"count":9924,
			"type":"SCALAR"
		},
		{
			"bufferView":16,
			"componentType":5126,
			"count":5931,
			"max":[
				1.0237133502960205,
				35.439483642578125,
				0.945023238658905
			],
			"min":[
				-0.9735722541809082,
				33.304141998291016,
				-1.0522230863571167
			],
			"type":"VEC3"
		},
		{
			"bufferView":17,
			"componentType":5126,
			"count":5931,
			"type":"VEC3"
		},
		{
			"bufferView":18,
			"componentType":5126,
			"count":5931,
			"type":"VEC2"
		},
		{
			"bufferView":19,
			"componentType":5123,
			"count":35250,
			"type":"SCALAR"
		},
		{
			"bufferView":20,
			"componentType":5126,
			"count":12217,
			"max":[
				1.6025807857513428,
				35.405906677246094,
				1.6030447483062744
			],
			"min":[
				-1.6034303903579712,
				30.03177261352539,
				-1.603039026260376
			],
			"type":"VEC3"
		},
		{
			"bufferView":21,
			"componentType":5126,
			"count":12217,
			"type":"VEC3"
		},
		{
			"bufferView":22,
			"componentType":5126,
			"count":12217,
			"type":"VEC2"
		},
		{
			"bufferView":23,
			"componentType":5123,
			"count":55974,
			"type":"SCALAR"
		}
	],
	"bufferViews":[
		{
			"buffer":0,
			"byteLength":687444,
			"byteOffset":0,
			"target":34962
		},
		{
			"buffer":0,
			"byteLength":687444,
			"byteOffset":687444,
			"target":34962
		},
		{
			"buffer":0,
			"byteLength":458296,
			"byteOffset":1374888,
			"target":34962
		},
		{
			"buffer":0,
			"byteLength":681516,
			"byteOffset":1833184,
			"target":34963
		},
		{
			"buffer":0,
			"byteLength":89100,
			"byteOffset":2514700,
			"target":34962
		},
		{
			"buffer":0,
			"byteLength":89100,
			"byteOffset":2603800,
			"target":34962
		},
		{
			"buffer":0,
			"byteLength":59400,
			"byteOffset":2692900,
			"target":34962
		},
		{
			"buffer":0,
			"byteLength":74076,
			"byteOffset":2752300,
			"target":34963
		},
		{
			"buffer":0,
			"byteLength":792636,
			"byteOffset":2826376,
			"target":34962
		},
		{
			"buffer":0,
			"byteLength":792636,
			"byteOffset":3619012,
			"target":34962
		},
		{
			"buffer":0,
			"byteLength":528424,
			"byteOffset":4411648,
			"target":34962
		},
		{
			"buffer":0,
			"byteLength":1333236,
			"byteOffset":4940072,
			"target":34963
		},
		{
			"buffer":0,
			"byteLength":20100,
			"byteOffset":6273308,
			"target":34962
		},
		{
			"buffer":0,
			"byteLength":20100,
			"byteOffset":6293408,
			"target":34962
		},
		{
			"buffer":0,
			"byteLength":13400,
			"byteOffset":6313508,
			"target":34962
		},
		{
			"buffer":0,
			"byteLength":19848,
			"byteOffset":6326908,
			"target":34963
		},
		{
			"buffer":0,
			"byteLength":71172,
			"byteOffset":6346756,
			"target":34962
		},
		{
			"buffer":0,
			"byteLength":71172,
			"byteOffset":6417928,
			"target":34962
		},
		{
			"buffer":0,
			"byteLength":47448,
			"byteOffset":6489100,
			"target":34962
		},
		{
			"buffer":0,
			"byteLength":70500,
			"byteOffset":6536548,
			"target":34963
		},
		{
			"buffer":0,
			"byteLength":146604,
			"byteOffset":6607048,
			"target":34962
		},
		{
			"buffer":0,
			"byteLength":146604,
			"byteOffset":6753652,
			"target":34962
		},
		{
			"buffer":0,
			"byteLength":97736,
			"byteOffset":6900256,
			"target":34962
		},
		{
			"buffer":0,
			"byteLength":111948,
			"byteOffset":6997992,
			"target":34963
		}
	],
	"samplers":[
		{
			"magFilter":9729,
			"minFilter":9987
		}
	],
	"buffers":[
		{
			"byteLength":7109940,
			"uri":"lamp.bin"
		}
	]
}
