{
	"asset":{
		"generator":"Khronos glTF Blender I/O v4.2.83",
		"version":"2.0"
	},
	"scene":0,
	"scenes":[
		{
			"name":"Scene",
			"nodes":[
				0
			]
		}
	],
	"nodes":[
		{
			"mesh":0,
			"name":"Desk"
		}
	],
	"materials":[
		{
			"doubleSided":true,
			"name":"table",
			"normalTexture":{
				"index":0
			},
			"pbrMetallicRoughness":{
				"baseColorTexture":{
					"index":1
				},
				"metallicRoughnessTexture":{
					"index":2
				}
			}
		}
	],
	"meshes":[
		{
			"name":"Cube.008",
			"primitives":[
				{
					"attributes":{
						"POSITION":0,
						"NORMAL":1,
						"TEXCOORD_0":2
					},
					"indices":3,
					"material":0
				}
			]
		}
	],
	"textures":[
		{
			"sampler":0,
			"source":0
		},
		{
			"sampler":0,
			"source":1
		},
		{
			"sampler":0,
			"source":2
		}
	],
	"images":[
		{
			"mimeType":"image/png",
			"name":"low_table_Normal_GL",
			"uri":"low_table_Normal_GL.png"
		},
		{
			"mimeType":"image/png",
			"name":"low_table_Color",
			"uri":"low_table_Color.png"
		},
		{
			"mimeType":"image/png",
			"name":"low_table_Metalness-low_table_Roughness",
			"uri":"low_table_Metalness-low_table_Roughness.png"
		}
	],
	"accessors":[
		{
			"bufferView":0,
			"componentType":5126,
			"count":1336,
			"max":[
				0.699999988079071,
				0.8330000042915344,
				0.4550696611404419
			],
			"min":[
				-0.699999988079071,
				0,
				-0.4449303448200226
			],
			"type":"VEC3"
		},
		{
			"bufferView":1,
			"componentType":5126,
			"count":1336,
			"type":"VEC3"
		},
		{
			"bufferView":2,
			"componentType":5126,
			"count":1336,
			"type":"VEC2"
		},
		{
			"bufferView":3,
			"componentType":5123,
			"count":5616,
			"type":"SCALAR"
		}
	],
	"bufferViews":[
		{
			"buffer":0,
			"byteLength":16032,
			"byteOffset":0,
			"target":34962
		},
		{
			"buffer":0,
			"byteLength":16032,
			"byteOffset":16032,
			"target":34962
		},
		{
			"buffer":0,
			"byteLength":10688,
			"byteOffset":32064,
			"target":34962
		},
		{
			"buffer":0,
			"byteLength":11232,
			"byteOffset":42752,
			"target":34963
		}
	],
	"samplers":[
		{
			"magFilter":9729,
			"minFilter":9987
		}
	],
	"buffers":[
		{
			"byteLength":53984,
			"uri":"Table.bin"
		}
	]
}
